<?xml version="1.0" encoding="UTF-8"?>
<svg version="1.1" xmlns="http://www.w3.org/2000/svg" width="64" height="64">
<path d="M0 0 C0.73734375 0.00773438 1.4746875 0.01546875 2.234375 0.0234375 C3.34039062 0.01183594 3.34039062 0.01183594 4.46875 0 C9.9810554 0.0201179 9.9810554 0.0201179 12.234375 2.2734375 C12.359375 5.3984375 12.359375 5.3984375 12.234375 8.2734375 C12.99363281 8.23863281 13.75289062 8.20382813 14.53515625 8.16796875 C16.02595703 8.12736328 16.02595703 8.12736328 17.546875 8.0859375 C18.53300781 8.05113281 19.51914062 8.01632813 20.53515625 7.98046875 C23.234375 8.2734375 23.234375 8.2734375 24.87817383 9.31518555 C26.95073634 12.30780911 26.66248868 15.38572279 26.6328125 18.8984375 C26.63568268 19.64174316 26.63855286 20.38504883 26.64151001 21.15087891 C26.64354976 22.7210364 26.638026 24.29121936 26.62548828 25.86132812 C26.60943203 28.26490082 26.62533852 30.66679211 26.64453125 33.0703125 C26.6425488 34.59635788 26.63870509 36.12240221 26.6328125 37.6484375 C26.64192154 38.72665771 26.64192154 38.72665771 26.6512146 39.82666016 C26.58095319 44.810656 26.58095319 44.810656 24.96939087 46.96255493 C22.83789984 48.57299232 21.73679732 48.65295887 19.0859375 48.66162109 C17.83949463 48.67580582 17.83949463 48.67580582 16.56787109 48.6902771 C15.67406738 48.68420441 14.78026367 48.67813171 13.859375 48.671875 C12.47806396 48.67618027 12.47806396 48.67618027 11.06884766 48.68057251 C9.12206406 48.68261381 7.17525998 48.67707933 5.22851562 48.66455078 C2.24562801 48.64849806 -0.73590461 48.66439722 -3.71875 48.68359375 C-5.609378 48.68161133 -7.50000515 48.67776768 -9.390625 48.671875 C-10.28442871 48.67794769 -11.17823242 48.68402039 -12.09912109 48.6902771 C-13.34556396 48.67609238 -13.34556396 48.67609238 -14.6171875 48.66162109 C-15.34760254 48.65923431 -16.07801758 48.65684753 -16.83056641 48.65438843 C-19.35257364 48.15788615 -20.2371007 47.31445681 -21.765625 45.2734375 C-22.06381078 42.65090292 -22.18621424 40.27049784 -22.1640625 37.6484375 C-22.16693268 36.90513184 -22.16980286 36.16182617 -22.17276001 35.39599609 C-22.17479976 33.8258386 -22.169276 32.25565564 -22.15673828 30.68554688 C-22.14068203 28.28197418 -22.15658852 25.88008289 -22.17578125 23.4765625 C-22.1737988 21.95051712 -22.16995509 20.42447279 -22.1640625 18.8984375 C-22.17317154 17.82021729 -22.17317154 17.82021729 -22.1824646 16.72021484 C-22.14116593 13.79069242 -22.10548701 11.76417255 -20.40942383 9.31518555 C-17.95602405 7.76035756 -15.94458702 7.98476825 -13.078125 8.0859375 C-12.08425781 8.11300781 -11.09039062 8.14007812 -10.06640625 8.16796875 C-8.92751953 8.22017578 -8.92751953 8.22017578 -7.765625 8.2734375 C-7.806875 7.3246875 -7.848125 6.3759375 -7.890625 5.3984375 C-7.66602654 -0.21652403 -4.97110815 0.01814273 0 0 Z M-1.765625 5.2734375 C-2.095625 6.2634375 -2.425625 7.2534375 -2.765625 8.2734375 C0.534375 8.2734375 3.834375 8.2734375 7.234375 8.2734375 C6.904375 7.2834375 6.574375 6.2934375 6.234375 5.2734375 C3.594375 5.2734375 0.954375 5.2734375 -1.765625 5.2734375 Z " fill="#FEA400" transform="translate(29.765625,5.7265625)"/>
<path d="M0 0 C0.33 0 0.66 0 1 0 C1.08703823 3.43734063 1.14040272 6.87439837 1.1875 10.3125 C1.21263672 11.28896484 1.23777344 12.26542969 1.26367188 13.27148438 C1.27333984 14.20927734 1.28300781 15.14707031 1.29296875 16.11328125 C1.3086792 16.97735596 1.32438965 17.84143066 1.34057617 18.73168945 C0.91747926 21.54960586 0.20420098 22.24665963 -2 24 C-3.93505859 24.38095093 -3.93505859 24.38095093 -6.1484375 24.38818359 C-7.39488037 24.40236832 -7.39488037 24.40236832 -8.66650391 24.4168396 C-9.56030762 24.41076691 -10.45411133 24.40469421 -11.375 24.3984375 C-12.75631104 24.40274277 -12.75631104 24.40274277 -14.16552734 24.40713501 C-16.11231094 24.40917631 -18.05911502 24.40364183 -20.00585938 24.39111328 C-22.98874699 24.37506056 -25.97027961 24.39095972 -28.953125 24.41015625 C-30.843753 24.40817383 -32.73438015 24.40433018 -34.625 24.3984375 C-35.51880371 24.40451019 -36.41260742 24.41058289 -37.33349609 24.4168396 C-38.16445801 24.40738312 -38.99541992 24.39792664 -39.8515625 24.38818359 C-40.58197754 24.38579681 -41.31239258 24.38341003 -42.06494141 24.38095093 C-44.55752867 23.8902405 -45.45657765 22.98236394 -47 21 C-47.29296875 18.73828125 -47.29296875 18.73828125 -47.1875 16.3125 C-47.16042969 15.50425781 -47.13335937 14.69601563 -47.10546875 13.86328125 C-47.07066406 13.24839844 -47.03585938 12.63351563 -47 12 C-45.68 11.67 -44.36 11.34 -43 11 C-42.67 8.69 -42.34 6.38 -42 4 C-40.83428467 3.98541748 -39.66856934 3.97083496 -38.4675293 3.95581055 C-34.14543878 3.89786883 -29.82387153 3.82063606 -25.50219727 3.73754883 C-23.63118986 3.70427998 -21.76008162 3.67625415 -19.88891602 3.65356445 C-17.20024617 3.62005412 -14.51250202 3.56774135 -11.82421875 3.51171875 C-10.56782845 3.50213387 -10.56782845 3.50213387 -9.28605652 3.49235535 C-4.93561077 3.54371482 -4.93561077 3.54371482 -1.31745911 1.47297668 C-0.8826976 0.98689438 -0.4479361 0.50081207 0 0 Z " fill="#BC6300" transform="translate(55,30)"/>
<path d="M0 0 C0.73734375 0.00773438 1.4746875 0.01546875 2.234375 0.0234375 C3.34039062 0.01183594 3.34039062 0.01183594 4.46875 0 C9.9810554 0.0201179 9.9810554 0.0201179 12.234375 2.2734375 C12.359375 5.3984375 12.359375 5.3984375 12.234375 8.2734375 C10.584375 8.2734375 8.934375 8.2734375 7.234375 8.2734375 C6.904375 7.6134375 6.574375 6.9534375 6.234375 6.2734375 C3.594375 6.2734375 0.954375 6.2734375 -1.765625 6.2734375 C-2.095625 6.9334375 -2.425625 7.5934375 -2.765625 8.2734375 C-0.455625 8.2734375 1.854375 8.2734375 4.234375 8.2734375 C3.859375 10.2109375 3.859375 10.2109375 3.234375 12.2734375 C-0.06522641 13.9232382 -3.75690384 13.65602111 -7.390625 13.8359375 C-8.19242188 13.87912109 -8.99421875 13.92230469 -9.8203125 13.96679688 C-11.8018761 14.07295207 -13.78372771 14.17370605 -15.765625 14.2734375 C-15.765625 15.9234375 -15.765625 17.5734375 -15.765625 19.2734375 C-17.085625 19.2734375 -18.405625 19.2734375 -19.765625 19.2734375 C-21.20234957 13.04763105 -21.20234957 13.04763105 -19.390625 9.8359375 C-15.57065295 7.56214461 -12.10524776 7.93962036 -7.765625 8.2734375 C-7.806875 7.3246875 -7.848125 6.3759375 -7.890625 5.3984375 C-7.66602654 -0.21652403 -4.97110815 0.01814273 0 0 Z " fill="#FEC254" transform="translate(29.765625,5.7265625)"/>
<path d="M0 0 C1.30710937 -0.00257812 2.61421875 -0.00515625 3.9609375 -0.0078125 C4.63479492 -0.00362305 5.30865234 0.00056641 6.00292969 0.00488281 C8.05694103 0.01559601 10.11007796 0.00495737 12.1640625 -0.0078125 C13.47117187 -0.00523438 14.77828125 -0.00265625 16.125 0 C17.31222656 0.00225586 18.49945313 0.00451172 19.72265625 0.00683594 C23.13614755 0.27133161 25.87632082 1.04474127 29.0625 2.265625 C29.0625 2.925625 29.0625 3.585625 29.0625 4.265625 C24.60192112 5.97483464 20.89205136 6.52219208 16.125 6.53125 C14.81789063 6.53382812 13.51078125 6.53640625 12.1640625 6.5390625 C11.49020508 6.53487305 10.81634766 6.53068359 10.12207031 6.52636719 C8.06805897 6.51565399 6.01492204 6.52629263 3.9609375 6.5390625 C2.65382813 6.53648438 1.34671875 6.53390625 0 6.53125 C-1.18722656 6.52899414 -2.37445313 6.52673828 -3.59765625 6.52441406 C-7.01114755 6.25991839 -9.75132082 5.48650873 -12.9375 4.265625 C-12.9375 3.605625 -12.9375 2.945625 -12.9375 2.265625 C-8.47692112 0.55641536 -4.76705136 0.00905792 0 0 Z " fill="#000000" transform="translate(23.9375,57.734375)"/>
<path d="M0 0 C4.0743356 0.84881992 5.54405875 2.30225596 8 5.625 C8.375 8.875 8.375 8.875 8 11.625 C7 12.625 7 12.625 3.875 12.7578125 C2.59625 12.75523438 1.3175 12.75265625 0 12.75 C-1.27875 12.75257812 -2.5575 12.75515625 -3.875 12.7578125 C-7 12.625 -7 12.625 -8 11.625 C-8.54981758 7.59300439 -8.32867437 6.06967709 -5.875 2.75 C-3 0.625 -3 0.625 0 0 Z " fill="#9D35BA" transform="translate(32,33.375)"/>
<path d="M0 0 C0.08121924 1.60332791 0.13929134 3.20784026 0.1875 4.8125 C0.23970703 6.15248047 0.23970703 6.15248047 0.29296875 7.51953125 C0 10 0 10 -1.18554688 11.63671875 C-3.65588878 13.4927991 -5.25671901 13.34381129 -8.32421875 13.29296875 C-9.35224609 13.28330078 -10.38027344 13.27363281 -11.43945312 13.26367188 C-13.04723633 13.2259668 -13.04723633 13.2259668 -14.6875 13.1875 C-15.77095703 13.17396484 -16.85441406 13.16042969 -17.97070312 13.14648438 C-20.64763405 13.11110643 -23.32356838 13.06174189 -26 13 C-25.625 11.0625 -25.625 11.0625 -25 9 C-22.76352369 7.88176185 -21.35108471 7.80603939 -18.8671875 7.68359375 C-18.06152344 7.64169922 -17.25585938 7.59980469 -16.42578125 7.55664062 C-15.58402344 7.51732422 -14.74226563 7.47800781 -13.875 7.4375 C-13.02550781 7.39431641 -12.17601562 7.35113281 -11.30078125 7.30664062 C-9.20071777 7.20045764 -7.10038052 7.09971503 -5 7 C-4.87625 6.030625 -4.7525 5.06125 -4.625 4.0625 C-4.315625 2.5465625 -4.315625 2.5465625 -4 1 C-2 0 -2 0 0 0 Z " fill="#A15400" transform="translate(56,41)"/>
<path d="M0 0 C0.73734375 0.00773438 1.4746875 0.01546875 2.234375 0.0234375 C3.34039062 0.01183594 3.34039062 0.01183594 4.46875 0 C9.9810554 0.0201179 9.9810554 0.0201179 12.234375 2.2734375 C12.359375 5.3984375 12.359375 5.3984375 12.234375 8.2734375 C10.584375 8.2734375 8.934375 8.2734375 7.234375 8.2734375 C6.904375 7.6134375 6.574375 6.9534375 6.234375 6.2734375 C3.594375 6.2734375 0.954375 6.2734375 -1.765625 6.2734375 C-2.095625 6.9334375 -2.425625 7.5934375 -2.765625 8.2734375 C-4.415625 8.2734375 -6.065625 8.2734375 -7.765625 8.2734375 C-7.890625 5.3984375 -7.890625 5.3984375 -7.765625 2.2734375 C-5.20613501 -0.28605249 -3.49355305 0.01275019 0 0 Z " fill="#9B33C1" transform="translate(29.765625,5.7265625)"/>
<path d="M0 0 C0.66 0.66 1.32 1.32 2 2 C1.8125 5.5 1.8125 5.5 1 9 C-2.22143276 11.14762184 -3.2595467 11.561068 -7 11 C-9.2855347 8.87208838 -9.92303658 7.52591672 -10.375 4.4375 C-10 2 -10 2 -8.9375 0.125 C-5.82785011 -1.68060316 -3.38260527 -0.79952488 0 0 Z " fill="#A139B8" transform="translate(36,21)"/>
<path d="M0 0 C0.66 0.33 1.32 0.66 2 1 C1.484375 1.53625 0.96875 2.0725 0.4375 2.625 C-1.30272841 4.99337614 -1.30272841 4.99337614 -0.8125 8.1875 C-0.544375 9.115625 -0.27625 10.04375 0 11 C0.66 11.33 1.32 11.66 2 12 C2.0810206 14.10353495 2.13919907 16.20795952 2.1875 18.3125 C2.22230469 19.48425781 2.25710937 20.65601563 2.29296875 21.86328125 C2 25 2 25 0.61328125 26.91796875 C-1 28 -1 28 -3 28 C-3.08694042 23.89596637 -3.14037149 19.79216871 -3.1875 15.6875 C-3.21263672 14.52025391 -3.23777344 13.35300781 -3.26367188 12.15039062 C-3.27817383 10.47299805 -3.27817383 10.47299805 -3.29296875 8.76171875 C-3.3086792 7.73006592 -3.32438965 6.69841309 -3.34057617 5.63549805 C-3 3 -3 3 -1.48168945 1.13989258 C-0.74825317 0.57564575 -0.74825317 0.57564575 0 0 Z " fill="#FBBA48" transform="translate(11,14)"/>
<path d="M0 0 C2.5625 1.5625 2.5625 1.5625 5 4 C4.8125 7.75 4.8125 7.75 4 11 C2.68 11.33 1.36 11.66 0 12 C0 8.04 0 4.08 0 0 Z " fill="#D19049" transform="translate(8,30)"/>
<path d="M0 0 C2.05078125 0.03255208 4.1015625 0.06510417 6.15234375 0.09765625 C5.82234375 1.08765625 5.49234375 2.07765625 5.15234375 3.09765625 C3.50234375 3.09765625 1.85234375 3.09765625 0.15234375 3.09765625 C0.15234375 4.74765625 0.15234375 6.39765625 0.15234375 8.09765625 C-0.83765625 8.42765625 -1.82765625 8.75765625 -2.84765625 9.09765625 C-2.9453125 2.9453125 -2.9453125 2.9453125 -2.84765625 1.09765625 C-1.84765625 0.09765625 -1.84765625 0.09765625 0 0 Z " fill="#FFF3DE" transform="translate(13.84765625,16.90234375)"/>
</svg>
