<?xml version="1.0" encoding="utf-8"?>
<!-- Generator: Adobe Illustrator 27.5.0, SVG Export Plug-In . SVG Version: 6.00 Build 0)  -->
<svg version="1.1" id="Ñëîé_1" xmlns="http://www.w3.org/2000/svg" xmlns:xlink="http://www.w3.org/1999/xlink" x="0px" y="0px"
	 viewBox="0 0 450 450" style="enable-background:new 0 0 450 450;" xml:space="preserve">
<g>
	<defs>
		<circle id="SVGID_1_" cx="225" cy="225" r="217.86"/>
	</defs>
	<clipPath id="SVGID_00000014634226239988617200000016157264468351227059_">
		<use xlink:href="#SVGID_1_"  style="overflow:visible;"/>
	</clipPath>
	<g style="clip-path:url(#SVGID_00000014634226239988617200000016157264468351227059_);">
		<rect style="fill:#B6D27B;" width="450" height="450"/>
	</g>
	<g style="clip-path:url(#SVGID_00000014634226239988617200000016157264468351227059_);">
		<path style="fill:#6D797A;" d="M361.633,249.564c0,51.212-45.636,92.727-101.932,92.727c-56.296,0-101.933-41.516-101.933-92.727
			c0-51.212,42.113-41.161,98.409-41.161C312.472,208.403,361.633,198.351,361.633,249.564z"/>
	</g>
	<path style="opacity:0.37;clip-path:url(#SVGID_00000014634226239988617200000016157264468351227059_);fill:#6D797A;" d="
		M256.177,208.403c-38.573,0-70.484-4.715-86.756,8.787c17.531-8.183,46.208-4.566,80.003-4.566
		c56.295,0,105.456-10.052,105.456,41.161c0,30.386-16.066,57.357-40.893,74.27c28.625-16.418,47.645-45.432,47.645-78.49
		C361.633,198.351,312.472,208.403,256.177,208.403z"/>
	<g style="clip-path:url(#SVGID_00000014634226239988617200000016157264468351227059_);">
		<path style="fill:#F27268;" d="M190.044,206.18c-9.561,5.266,1.281,62.085,12.573,78.042c5.721,8.085,6.056,45.881,1.195,53.495
			c-5.122,8.018-10.704,16.754-14.676,25.294c-2.548,5.481-4.946,12.215-5.912,18.257c-0.569,3.568-1.674,16.787,2.103,19.026
			c3.587,2.124,16.17-5.335,19.021-7.105c6.75-4.191,13.771-7.618,20.473-11.936c8.241-5.301,13.221-13.74,23.436-7.225
			c12.643,8.064,22.59,19.583,36.721,25.559c7.4,3.13,16.046,5.247,24.038,2.677c7.093-2.28,3.735-6.594,1.819-12.483
			c-1.772-5.458-2.358-11.71-5.246-16.496c-30.025-49.731-15.95-80.136-11.273-87.104c2.126-3.167,4.416-4.591,7.095-7.072
			c3.605-3.346,15.652-66.186,13.082-69.527c-4.155-5.398-16.458-8.57-22.556-9.938c-3.919-0.88-7.835-1.495-12.249-1.46
			c-14.954,0.121-56.003-1.311-64.824-0.2C206.323,199.057,197.575,202.034,190.044,206.18z"/>
	</g>
	<g style="clip-path:url(#SVGID_00000014634226239988617200000016157264468351227059_);">
		<path style="fill:#BF6613;" d="M264.896,33.768c8.855-4.634,21.176,2.237,28.451,10.802
			c17.813,20.973,23.501,50.852,25.089,62.516c3.314,24.397-14.39,50.715-29.232,57.761c-30.658,14.554-70.352,3.235-76.632,1.284
			c-17.671-5.479-32.867-35.75-32.13-52.225c0.352-7.877,4.475-85.6,65.265-85.6C257.309,28.306,264.896,33.768,264.896,33.768z"/>
	</g>
	<g style="clip-path:url(#SVGID_00000014634226239988617200000016157264468351227059_);">
		<path style="fill:#FECFA0;" d="M233.313,184.72c-5.752,9.916-15.01,10.468-24.235,12.626
			c16.558,23.245,61.395,27.442,78.697,1.593c-1.918-2.152-5.348-1.783-7.777-3.525c-2.54-1.827-6.035-6.552-7.499-9.554
			c-2.565-5.262-3.634-12.924-4.18-18.771c-0.935-9.945-0.771-10.236-10.497-10.236c-6.074,0-18.172-3.819-20.791,3.272
			c-1.182,3.199,0.224,8.818-0.118,12.341C236.49,176.814,235.475,180.987,233.313,184.72z"/>
	</g>
	<g style="clip-path:url(#SVGID_00000014634226239988617200000016157264468351227059_);">
		<path style="fill:#F3B790;" d="M253.13,176.215c4.944,0.152,10.838-1.398,15.523-6.004c-0.127-1.076-0.242-2.132-0.335-3.124
			c-0.935-9.945-0.771-10.236-10.497-10.236c-6.074,0-18.172-3.819-20.791,3.272c-0.902,2.442-0.298,6.295-0.113,9.548
			C242.642,174.118,247.743,176.514,253.13,176.215z"/>
	</g>
	<g style="clip-path:url(#SVGID_00000014634226239988617200000016157264468351227059_);">
		<path style="fill:#FECFA0;" d="M297.689,105.988c0,34.642-23.733,64.422-44.076,63.781c-20.507,1.166-46.339-29.14-46.339-63.781
			c0-34.638,20.244-62.72,45.205-62.72C277.444,43.268,297.689,71.35,297.689,105.988z"/>
	</g>
	<g style="clip-path:url(#SVGID_00000014634226239988617200000016157264468351227059_);">
		<g>
			<path style="fill:#E0956A;" d="M286.267,100.654c0.928,4.089-7.676,9.853-11.505,9.999c-5.451,0.213-11.547-2.896-11.523-5.128
				c0.042-4.482,6.367-10.887,10.887-11.1C279.58,94.176,285.283,96.295,286.267,100.654z"/>
		</g>
		<g>
			<path style="fill:#FFFFFF;" d="M285.75,103.045c0.866,3.112-6.088,7.909-11.477,8.117c-5.384,0.209-11.333-2.522-11.292-4.251
				c0.076-3.469,6.191-7.646,10.657-7.847C279.031,98.823,284.813,99.679,285.75,103.045z"/>
		</g>
		<g>
			<path style="fill:#87A34B;" d="M281.644,104.661c0,3.568-3.12,6.459-6.965,6.459c-3.85,0-6.969-2.891-6.969-6.459
				c0-3.567,3.716-5.847,7.565-5.847C279.12,98.814,281.644,101.094,281.644,104.661z"/>
		</g>
		<g>
			<path style="fill:#000501;" d="M278.404,104.332c0,2.005-1.652,3.631-3.686,3.631c-2.037,0-3.689-1.626-3.689-3.631
				c0-2.007,1.652-3.631,3.689-3.631C276.752,100.701,278.404,102.325,278.404,104.332z"/>
		</g>
		<g>
			<path style="fill:#FFFFFF;" d="M278.903,105.783c0,0.695-0.575,1.261-1.283,1.261s-1.28-0.566-1.28-1.261
				c0-0.699,0.572-1.265,1.28-1.265S278.903,105.084,278.903,105.783z"/>
		</g>
		<g>
			<path style="fill:#100900;" d="M275.382,99.877c4.95-0.183,7.706,1.903,10.613,3.913c1.211-0.724,3.139-1.427,4.21-2.504
				c-1.808,0.315-20.076-8.483-27.188,4.022l-0.3,0.726c0.031-0.01,0.149-0.025,0.251-0.038
				C265.293,102.893,270.248,100.063,275.382,99.877z"/>
		</g>
	</g>
	<g style="clip-path:url(#SVGID_00000014634226239988617200000016157264468351227059_);">
		<g>
			<path style="fill:#E0956A;" d="M218.449,100.654c-0.928,4.088,7.677,9.853,11.507,9.999c5.45,0.213,11.546-2.896,11.521-5.128
				c-0.042-4.482-6.367-10.887-10.887-11.099C225.137,94.173,219.434,96.295,218.449,100.654z"/>
		</g>
		<g>
			<path style="fill:#FFFFFF;" d="M218.967,103.044c-0.868,3.113,6.087,7.908,11.477,8.117c5.384,0.213,11.331-2.521,11.29-4.25
				c-0.077-3.468-6.191-7.646-10.656-7.847C225.684,98.823,219.904,99.679,218.967,103.044z"/>
		</g>
		<g>
			<path style="fill:#87A34B;" d="M223.074,104.664c0,3.566,3.116,6.457,6.962,6.457c3.851,0,6.969-2.891,6.969-6.457
				c0-3.567-3.599-5.981-7.449-5.981C225.71,98.682,223.074,101.096,223.074,104.664z"/>
		</g>
		<g>
			<path style="fill:#000501;" d="M226.311,104.332c0,2.005,1.651,3.631,3.688,3.631c2.036,0,3.688-1.626,3.688-3.631
				c0-2.005-1.651-3.633-3.688-3.633C227.962,100.699,226.311,102.327,226.311,104.332z"/>
		</g>
		<g>
			<path style="fill:#FFFFFF;" d="M225.811,105.781c0,0.697,0.578,1.264,1.284,1.264c0.708,0,1.281-0.566,1.281-1.264
				c0-0.696-0.573-1.263-1.281-1.263C226.389,104.518,225.811,105.085,225.811,105.781z"/>
		</g>
		<g>
			<path style="fill:#100900;" d="M229.334,99.877c-4.951-0.183-7.703,1.903-10.614,3.915c-1.21-0.729-3.136-1.432-4.21-2.508
				c1.809,0.317,20.077-8.482,27.186,4.024l0.305,0.726c-0.034-0.01-0.15-0.025-0.255-0.04
				C239.423,102.893,234.469,100.063,229.334,99.877z"/>
		</g>
	</g>
	<g style="opacity:0.75;clip-path:url(#SVGID_00000014634226239988617200000016157264468351227059_);">
		<path style="fill:#783A0C;" d="M263.665,86.485c-0.275-2.247,1.415-2.724,2.458-3.599c1.171-0.804,2.379-1.531,3.613-2.192
			c2.486-1.295,5.086-2.346,7.874-2.986c1.404-0.299,2.849-0.528,4.437-0.424c1.338,0.121,2.942,0.35,4.33,1.026
			c1.424,0.652,2.589,1.821,3.334,3.052c0.768,1.238,1.238,2.548,1.581,3.863c0.064,0.241-0.08,0.484-0.322,0.548
			c-0.199,0.052-0.408-0.041-0.501-0.216c-1.275-2.288-2.836-4.427-5.014-4.92c-1.085-0.327-2.182-0.33-3.482-0.263
			c-1.065,0.054-2.257,0.363-3.409,0.763c-2.327,0.795-4.602,1.944-6.733,3.249c-1.072,0.649-2.106,1.352-3.085,2.105
			c-1.103,0.687-1.463,1.903-3.636,1.51l-0.022-0.004C264.315,87.857,263.755,87.227,263.665,86.485z"/>
	</g>
	<g style="opacity:0.75;clip-path:url(#SVGID_00000014634226239988617200000016157264468351227059_);">
		<path style="fill:#783A0C;" d="M239.852,88.318c-2.184,0.44-2.611-0.788-3.76-1.458c-1.03-0.745-2.119-1.436-3.236-2.074
			c-2.232-1.282-4.604-2.403-7.013-3.184c-1.195-0.394-2.447-0.703-3.543-0.767c-0.719-0.032-1.279-0.066-1.887-0.029
			c-0.615,0.021-1.194,0.11-1.754,0.248c-1.121,0.264-2.145,0.818-3.024,1.698c-0.865,0.885-1.613,1.987-2.297,3.146
			c-0.127,0.213-0.4,0.287-0.613,0.163c-0.18-0.104-0.262-0.32-0.205-0.513c0.385-1.338,0.912-2.67,1.756-3.908
			c0.834-1.235,2.091-2.339,3.556-2.948c1.417-0.608,3.052-0.836,4.399-0.946c1.627-0.09,3.07,0.127,4.512,0.415
			c2.848,0.613,5.527,1.623,8.107,2.88c1.279,0.643,2.53,1.349,3.75,2.137c1.097,0.862,2.827,1.303,2.65,3.582
			c-0.061,0.786-0.642,1.407-1.374,1.556L239.852,88.318z"/>
	</g>
	<g style="clip-path:url(#SVGID_00000014634226239988617200000016157264468351227059_);">
		<path style="fill:#BF6613;" d="M210.713,128.787c1.943,11.21,6.98,27.012,16.828,33.231
			c-12.969-0.786-26.413-19.603-31.148-31.442c-6.512-16.294-7.794-34.301-2.251-51.088c4.384-13.279,36.041-45.957,67.498-39.407
			c5.51,1.152,4.994,12.604,4.715,16.561c-0.409,5.857-3.755,9.208-12.253,15.581c-3.809,2.858-15.887,4.775-18.825,8.366
			c-0.2-2.939,8.636-7.596,9.148-10.341C241.681,72.953,202.638,82.196,210.713,128.787z"/>
	</g>
	<g style="clip-path:url(#SVGID_00000014634226239988617200000016157264468351227059_);">
		<g>
			<path style="fill:#F27268;" d="M263.755,139.678c-6.035-1.996-8.194-0.211-9.022-0.211c-1.071,0-3.486-1.623-9.112,0.316
				c-1.397,0.485-4.433,0.673-7.469-0.016c1.511,6.827,8.256,11.979,16.351,11.979c13.037,0,16.729-13.643,16.466-12.041
				C266.729,140.655,264.671,139.982,263.755,139.678z"/>
		</g>
		<g>
			<path style="fill:#F5695D;" d="M263.81,139.705c-6.033-1.996-8.194-0.211-9.02-0.211c-1.071,0-3.485-1.624-9.11,0.316
				c-1.4,0.484-4.436,0.674-7.472-0.017c0.017,0.079,0.044,0.155,0.064,0.232c1.848,2.853,8.406,4.966,16.235,4.966
				c8.085,0,14.832-2.249,16.418-5.241C266.757,140.667,264.719,140.005,263.81,139.705z"/>
		</g>
	</g>
	<g style="clip-path:url(#SVGID_00000014634226239988617200000016157264468351227059_);">
		<path style="fill:#DE9F72;" d="M247.626,126.611c3.703,2.17,11.057,1.472,12.84,0.116c-0.11,1.048-1.063,2.033-2.296,2.622
			c-1.228,0.614-2.707,0.878-4.157,0.88c-1.456-0.028-2.93-0.314-4.148-0.953C248.645,128.667,247.708,127.664,247.626,126.611z"/>
	</g>
	<g style="clip-path:url(#SVGID_00000014634226239988617200000016157264468351227059_);">
		<path style="fill:#BF6613;" d="M272.272,43.067c42.051,11.027,30.333,94.02,23.611,98.723
			c-4.066,2.847,10.998-31.134-1.485-56.913c-3.886-8.019-20.632-16.934-26.83-23.907C258.518,50.787,261.097,40.137,272.272,43.067
			z"/>
	</g>
	<g style="opacity:0.23;clip-path:url(#SVGID_00000014634226239988617200000016157264468351227059_);">
		<g>
			<path style="fill:#63300A;" d="M262.51,45.726c-8.726,1.184-17.116,3.511-24.912,7.406c-7.764,3.872-14.766,9.341-20.388,16.103
				c-5.632,6.751-9.871,14.746-12.543,23.279c-2.611,8.525-3.953,17.663-2.697,26.644c0.017,0.09-0.045,0.176-0.135,0.192
				c-0.082,0.013-0.167-0.046-0.189-0.128c-1.939-8.956-1.289-18.348,0.746-27.324c2.098-8.99,5.876-17.688,11.345-25.334
				c5.448-7.654,12.601-14.185,20.771-19.044c8.143-4.881,17.298-8.146,26.45-10.084l0.11-0.022
				c2.285-0.483,4.522,0.975,5.005,3.255c0.482,2.282-0.972,4.522-3.252,5.005C262.72,45.694,262.613,45.713,262.51,45.726z"/>
		</g>
	</g>
	<g style="opacity:0.33;clip-path:url(#SVGID_00000014634226239988617200000016157264468351227059_);">
		<g>
			<path style="fill:#63300A;" d="M260.601,39.418c-6.985-1.762-14.136-2.449-21.234-1.591c-7.078,0.828-13.98,3.267-20.098,7.099
				c-6.134,3.82-11.484,8.945-15.871,14.805c-4.378,5.866-7.899,12.446-10.166,19.483c-0.005,0.012-0.02,0.02-0.033,0.015
				c-0.013-0.002-0.02-0.016-0.015-0.029c1.868-7.163,5.03-14.001,9.15-20.221c4.129-6.216,9.32-11.814,15.518-16.182
				c6.179-4.378,13.391-7.42,20.949-8.739c7.545-1.36,15.396-1.036,22.826,0.402l0.073,0.014c1.373,0.265,2.273,1.594,2.007,2.968
				c-0.265,1.374-1.595,2.273-2.968,2.007C260.694,39.439,260.646,39.429,260.601,39.418z"/>
		</g>
	</g>
	<g style="opacity:0.29;clip-path:url(#SVGID_00000014634226239988617200000016157264468351227059_);">
		<g>
			<path style="fill:#63300A;" d="M266.81,54.427c-0.523,1.049-1.286,2.457-2.009,3.531c-0.738,1.137-1.545,2.214-2.398,3.231
				c-1.717,2.038-3.603,3.863-5.615,5.491c-2.009,1.631-4.133,3.084-6.347,4.346c-2.217,1.24-4.521,2.378-6.962,2.998
				c0,0,0,0,0-0.001v-0.001c2.27-1.068,4.253-2.587,6.137-4.175c1.873-1.606,3.6-3.359,5.157-5.221
				c1.561-1.858,2.938-3.84,4.086-5.898c0.571-1.028,1.075-2.082,1.509-3.146c0.458-1.128,0.733-1.993,1.097-3.279
				c0.435-1.538,2.028-2.433,3.567-1.999c1.539,0.433,2.43,2.031,1.996,3.567c-0.045,0.17-0.111,0.333-0.184,0.485L266.81,54.427z"
				/>
		</g>
	</g>
	<g style="opacity:0.27;clip-path:url(#SVGID_00000014634226239988617200000016157264468351227059_);">
		<g>
			<path style="fill:#63300A;" d="M266.385,41.52c0.051-1.058,0.197-1.464,0.516-1.624c0.337-0.098,0.696-0.145,1.011-0.192
				c0.651-0.104,1.31-0.156,1.965-0.193c1.315-0.061,2.631,0.017,3.914,0.206c2.573,0.391,5.021,1.244,7.242,2.399
				c4.426,2.365,8.081,5.688,11.054,9.413c2.992,3.725,5.423,7.794,7.435,12.019c1.912,4.276,3.49,8.672,4.507,13.194
				c0.02,0.098-0.042,0.197-0.141,0.218c-0.089,0.021-0.176-0.027-0.21-0.108c-1.795-4.242-3.747-8.386-6.164-12.235
				c-2.32-3.891-4.992-7.556-8.086-10.749c-3.097-3.156-6.516-6.005-10.375-7.715c-1.902-0.876-3.891-1.471-5.884-1.685
				c-0.998-0.103-1.99-0.121-2.972-0.031c-0.494,0.049-0.982,0.107-1.463,0.206c-0.503-0.036-0.735,0.744-1.846-1.09
				c-0.375-0.623-0.539-1.318-0.506-1.994L266.385,41.52z"/>
		</g>
	</g>
	<g style="clip-path:url(#SVGID_00000014634226239988617200000016157264468351227059_);">
		<path style="fill:#FECFA0;" d="M254.676,213.591c10.744-0.431,21.315-3.391,31.934-3.704c-1.677,3.314-6.682,7.067-9.902,10.253
			c-4.435,4.387-8.439,8.632-11.147,13.283c-2.766,4.751-14.311,13.559-15.928,13.504c-4.232-0.138-23.261-11.916-30.089-17.635
			c-5.229-4.381-13.343-13.235-5.855-17.94c4.269-2.681,12.066,0.058,17.994,0.909C239.132,213.33,246.802,213.908,254.676,213.591z
			"/>
	</g>
	<g style="clip-path:url(#SVGID_00000014634226239988617200000016157264468351227059_);">
		<path style="fill:#FECFA0;" d="M254.676,213.591c10.744-0.431,21.315-3.391,31.934-3.704c-1.677,3.314-6.682,7.067-9.902,10.253
			c-4.435,4.387-8.439,8.632-11.147,13.283c-2.766,4.751-14.311,13.559-15.928,13.504c-4.232-0.138-23.261-11.916-30.089-17.635
			c-5.229-4.381-13.343-13.235-5.855-17.94c4.269-2.681,12.066,0.058,17.994,0.909C239.132,213.33,246.802,213.908,254.676,213.591z
			"/>
	</g>
	<g style="clip-path:url(#SVGID_00000014634226239988617200000016157264468351227059_);">
		<g>
			<path style="fill:#FFFFFF;" d="M275.174,204.979c-0.604-0.535-0.693-1.42-0.243-2.017c0.452-0.594,1.329-0.743,2.007-0.307
				c0.678,0.438,0.841,1.382,0.317,2.072C276.73,205.419,275.777,205.511,275.174,204.979z"/>
		</g>
		<g>
			<g>
				<path style="fill:#FFFFFF;" d="M271.067,209.045c-0.668-0.831-0.583-2.012,0.139-2.683c0.725-0.673,1.905-0.667,2.688,0.058
					c0.778,0.724,0.776,1.99-0.064,2.768C272.993,209.967,271.731,209.877,271.067,209.045z"/>
			</g>
			<g>
				<path style="fill:#FFFFFF;" d="M266.7,212.05c-0.517-0.93-0.241-2.083,0.587-2.623c0.828-0.541,1.992-0.339,2.643,0.509
					c0.642,0.845,0.43,2.094-0.525,2.719C268.445,213.278,267.222,212.98,266.7,212.05z"/>
			</g>
			<g>
				<path style="fill:#FFFFFF;" d="M261.674,214.379c-0.354-1.006,0.121-2.087,1.029-2.482c0.91-0.393,2.018,0.004,2.514,0.951
					c0.487,0.944,0.064,2.14-0.981,2.589C263.185,215.893,262.028,215.381,261.674,214.379z"/>
			</g>
			<g>
				<path style="fill:#FFFFFF;" d="M256.564,215.78c-0.186-1.049,0.451-2.045,1.413-2.285c0.964-0.238,1.997,0.333,2.328,1.347
					c0.329,1.012-0.283,2.122-1.39,2.395C257.811,217.514,256.749,216.829,256.564,215.78z"/>
			</g>
		</g>
		<g>
			<g>
				<path style="fill:#FFFFFF;" d="M251.28,216.352c-0.022-1.068,0.771-1.948,1.76-2.035c0.99-0.083,1.919,0.648,2.081,1.703
					c0.163,1.051-0.616,2.047-1.749,2.142C252.236,218.259,251.3,217.415,251.28,216.352z"/>
			</g>
			<g>
				<path style="fill:#FFFFFF;" d="M245.984,216.087c0.149-1.057,1.065-1.799,2.059-1.731c0.99,0.07,1.793,0.942,1.79,2.006
					c-0.005,1.064-0.93,1.922-2.065,1.843C246.634,218.127,245.838,217.14,245.984,216.087z"/>
			</g>
			<g>
				<path style="fill:#FFFFFF;" d="M240.571,214.915c0.322-1.016,1.354-1.594,2.314-1.364c0.965,0.236,1.609,1.225,1.434,2.276
					c-0.182,1.051-1.237,1.744-2.345,1.475C240.865,217.036,240.246,215.928,240.571,214.915z"/>
			</g>
			<g>
				<path style="fill:#FFFFFF;" d="M235.648,212.953c0.484-0.951,1.593-1.353,2.504-0.968c0.917,0.39,1.393,1.468,1.044,2.476
					c-0.345,1.006-1.501,1.523-2.552,1.075C235.594,215.092,235.165,213.899,235.648,212.953z"/>
			</g>
		</g>
		<g>
			<g>
				<path style="fill:#FFFFFF;" d="M231.104,210.199c0.638-0.856,1.796-1.068,2.63-0.541c0.835,0.534,1.129,1.677,0.623,2.614
					c-0.509,0.935-1.732,1.255-2.694,0.64C230.696,212.3,230.47,211.052,231.104,210.199z"/>
			</g>
			<g>
				<path style="fill:#FFFFFF;" d="M227.097,206.73c0.774-0.734,1.954-0.751,2.685-0.089c0.732,0.664,0.825,1.842,0.171,2.68
					c-0.655,0.841-1.915,0.947-2.762,0.178C226.341,208.73,226.326,207.461,227.097,206.73z"/>
			</g>
			<g>
				<path style="fill:#FFFFFF;" d="M223.746,203.017c0.721-0.468,1.654-0.307,2.135,0.322c0.48,0.633,0.391,1.574-0.252,2.146
					c-0.64,0.57-1.658,0.474-2.215-0.261C222.852,204.491,223.025,203.483,223.746,203.017z"/>
			</g>
			<g>
				<path style="fill:#FFFFFF;" d="M221.252,198.107c0.791-0.328,1.68-0.002,2.041,0.701c0.355,0.706,0.102,1.616-0.631,2.064
					c-0.73,0.447-1.717,0.172-2.136-0.653C220.104,199.396,220.459,198.435,221.252,198.107z"/>
			</g>
			<g>
				<path style="fill:#FFFFFF;" d="M277.884,197.966c0.793-0.329,1.681-0.001,2.041,0.701c0.357,0.706,0.103,1.616-0.632,2.065
					c-0.729,0.447-1.716,0.172-2.135-0.653C276.737,199.254,277.091,198.294,277.884,197.966z"/>
			</g>
		</g>
	</g>
	<g style="clip-path:url(#SVGID_00000014634226239988617200000016157264468351227059_);">
		<path style="fill:#E36B62;" d="M278.389,198.78c1.104,2.585-22.745,36.616-28.674,48.546l-1.404-0.703
			c-6.279-12.377-27.793-44.983-26.658-47.49c0,0-29.417,2.185-28.267,5.544c1.84,5.36,29.713,39.138,53.333,44.463
			c-3.314,10.261-2.638,30.161-1.924,51.121c0.747,21.959,1.594,46.847-3.748,51.246l1.906,2.316
			c6.484-5.34,5.723-27.734,4.84-53.664c-0.686-20.128-1.39-40.885,1.899-50.456c0.098-0.006,0.2-0.013,0.314-0.024
			c23.968-4.745,54.233-39.501,56.209-45.135C307.409,201.161,278.389,198.78,278.389,198.78z"/>
	</g>
	<g style="clip-path:url(#SVGID_00000014634226239988617200000016157264468351227059_);">
		<g>
			<path style="fill:#FFFFFF;" d="M194.102,198.599c1.895,6.023,31.72,45.351,55.602,48.505c-3.105-9.29-28.927-51.509-27.694-54.48
				C222.01,192.623,192.967,194.978,194.102,198.599z"/>
		</g>
		<g>
			<path style="fill:#FFFFFF;" d="M305.535,199.196c-1.954,5.975-31.863,42.857-55.531,47.908
				c3.205-9.213,29.237-51.039,28.063-53.999C278.066,193.104,306.717,195.605,305.535,199.196z"/>
		</g>
	</g>
	<g style="clip-path:url(#SVGID_00000014634226239988617200000016157264468351227059_);">
		<rect y="344.261" style="fill:#E8E5CA;" width="450" height="105.739"/>
	</g>
	<g style="clip-path:url(#SVGID_00000014634226239988617200000016157264468351227059_);">
		<path style="fill:#F27268;" d="M186.436,351.763c5.659-11.917,10.932-56.723,12.491-78.883
			c-7.356-18.531-12.991-49.713-10.344-62.82c-0.173-0.166-0.316-0.328-0.386-0.487l-0.031-0.632
			c-3.277,3.971-4.863,11.233-5.91,16.069c-1.925,8.916-16.493,65.186-20.197,84.59c-2.847,14.916-4.103,32.452,4.926,43.097
			C170.618,356.977,183.375,358.206,186.436,351.763z"/>
	</g>
	<g style="clip-path:url(#SVGID_00000014634226239988617200000016157264468351227059_);">
		<g>
			<path style="fill:#A8A8A8;" d="M66.946,413.999c-0.644,1.991,0.599,3.754,2.755,3.922l132.805,10.333
				c2.158,0.169,4.449-1.316,5.094-3.306l23.817-54.733c0.642-1.991-0.565-7.015-2.72-7.182l-132.839-7.075
				c-2.159-0.167-4.45,1.319-5.09,3.31L66.946,413.999z"/>
		</g>
		<g>
			<path style="fill:#FFFFFF;" d="M67.166,409.333c-0.643,1.988,0.6,3.754,2.756,3.918l131.815,11.544
				c2.154,0.164,4.447-1.321,5.092-3.31l23.818-54.73c0.643-1.994-0.598-3.754-2.752-3.924L95.09,352.497
				c-2.16-0.17-4.452,1.318-5.09,3.307L67.166,409.333z"/>
		</g>
		<g>
			<path style="fill:#6D797A;" d="M61.245,355.594c-0.683,1.975,0.525,3.765,2.679,3.973l132.572,12.976
				c2.152,0.209,4.137-1.293,4.82-3.27l0.081-0.244c0.683-1.98,0.116-4.344-2.034-4.557L66.405,352.383
				c-2.156-0.212-4.477,1.229-5.155,3.206L61.245,355.594z"/>
		</g>
		<g>
			<g>
				<path style="fill:#6D797A;" d="M206.438,384.454c-0.036,0.112,0.034,0.213,0.156,0.223l7.535,0.586
					c0.122,0.01,0.253-0.074,0.289-0.188l1.351-3.105c0.037-0.112-0.033-0.213-0.156-0.223l-7.534-0.586
					c-0.123-0.01-0.253,0.074-0.289,0.189L206.438,384.454z"/>
			</g>
			<g>
				<path style="fill:#6D797A;" d="M204.406,389.111c-0.036,0.112,0.034,0.212,0.157,0.222l7.535,0.587
					c0.122,0.01,0.252-0.074,0.289-0.188l1.351-3.105c0.037-0.112-0.033-0.212-0.156-0.222l-7.535-0.587
					c-0.122-0.01-0.252,0.075-0.288,0.188L204.406,389.111z"/>
			</g>
			<g>
				<path style="fill:#6D797A;" d="M202.43,393.786c-0.037,0.112,0.033,0.213,0.156,0.223l7.535,0.586
					c0.123,0.01,0.252-0.074,0.289-0.188l1.351-3.105c0.036-0.112-0.033-0.213-0.156-0.223l-7.535-0.587
					c-0.123-0.01-0.253,0.075-0.289,0.189L202.43,393.786z"/>
			</g>
			<g>
				<path style="fill:#6D797A;" d="M200.299,398.7c-0.037,0.112,0.033,0.213,0.156,0.223l7.535,0.586
					c0.123,0.01,0.252-0.074,0.289-0.188l1.352-3.105c0.036-0.112-0.034-0.213-0.156-0.223l-7.535-0.586
					c-0.123-0.01-0.253,0.074-0.289,0.188L200.299,398.7z"/>
			</g>
		</g>
		<g>
			<g>
				<path style="fill:#535C5D;" d="M196.58,383.289c-0.037,0.112,0.033,0.213,0.156,0.223l7.535,0.586
					c0.122,0.01,0.252-0.074,0.289-0.188l1.351-3.105c0.036-0.112-0.033-0.213-0.156-0.223l-7.534-0.586
					c-0.123-0.01-0.254,0.074-0.289,0.188L196.58,383.289z"/>
			</g>
			<g>
				<path style="fill:#6D797A;" d="M194.548,387.945c-0.037,0.112,0.034,0.213,0.156,0.223l7.536,0.586
					c0.121,0.01,0.252-0.074,0.289-0.188l1.351-3.105c0.036-0.112-0.034-0.213-0.156-0.223l-7.534-0.586
					c-0.123-0.01-0.253,0.074-0.29,0.188L194.548,387.945z"/>
			</g>
			<g>
				<path style="fill:#535C5D;" d="M192.571,392.621c-0.037,0.112,0.033,0.212,0.156,0.222l7.535,0.587
					c0.122,0.01,0.253-0.075,0.289-0.188l1.351-3.105c0.037-0.112-0.033-0.212-0.156-0.222l-7.534-0.587
					c-0.123-0.01-0.253,0.074-0.289,0.189L192.571,392.621z"/>
			</g>
			<g>
				<path style="fill:#4A4F52;" d="M190.44,397.535c-0.037,0.112,0.034,0.213,0.157,0.223l7.535,0.586
					c0.122,0.01,0.252-0.074,0.288-0.189l1.352-3.104c0.037-0.113-0.033-0.213-0.156-0.223l-7.535-0.586
					c-0.123-0.011-0.253,0.074-0.289,0.188L190.44,397.535z"/>
			</g>
		</g>
	</g>
	<g style="clip-path:url(#SVGID_00000014634226239988617200000016157264468351227059_);">
		<g>
			<path style="fill:#532808;" d="M209.661,374.334c-0.129,0-0.238-0.101-0.243-0.232c-0.009-0.133,0.096-0.248,0.229-0.258
				l56.199-2.76c0.15,0.005,0.246,0.1,0.256,0.233c0.006,0.136-0.098,0.251-0.234,0.255l-56.195,2.762
				C209.669,374.334,209.665,374.334,209.661,374.334z"/>
		</g>
	</g>
	<g style="clip-path:url(#SVGID_00000014634226239988617200000016157264468351227059_);">
		<g>
			<path style="fill:#F9C294;" d="M250.961,369.211c-1.627-3.241-3.227-5.524-6.836-6.279c-3.267-0.683-6.1-1.821-9.261-2.899
				c-4.028-1.367-7.985-2.375-11.915-3.821c-3.184-1.175-13.052,0.189-19.368,7.982c-1.973,2.433-14.489,16.675-4.854,14.195
				c-0.028,0.075,0.6-0.168,0.545-0.051c-0.715,1.573-4.969,5.493-2.43,7.483c2.351,1.845,4.425-1.96,6.126-3.322
				c-0.248,5.986,5.342,2.436,9.313-1.919c0.163,4.604,5.664,1.894,7.828-0.272c2.97-2.973,5.894-6.196,10.428-5.752
				c3.976,0.392,8.003,3.071,12.122,3.342c3.702,0.236,7.666-0.366,11.342-0.699C253.659,374.435,252.229,371.73,250.961,369.211z"
				/>
		</g>
		<g style="opacity:0.32;">
			<g>
				<path style="fill:#612800;" d="M198.39,378.556c0.785-0.225,1.439-0.78,2.057-1.27c1.394-1.175,2.606-2.679,3.871-3.985
					c2.518-2.616,4.966-5.164,7.461-7.759c0.008-0.007,0.021-0.02,0.023-0.023c0.171-0.201,0.154-0.51-0.04-0.689
					c-0.2-0.179-0.503-0.162-0.677,0.036c-2.411,2.749-4.859,5.584-7.251,8.309c-1.198,1.354-2.269,2.569-3.53,3.94
					c-0.418,0.363-0.839,0.749-1.313,1.039c-0.6,0.306-1.12,0.456-1.575,0.503c-0.133,0.018-0.27,0.017-0.404,0.018
					c-1.01-0.022-1.457-0.569-1.841-0.982C195.296,378.459,196.575,379.355,198.39,378.556z"/>
			</g>
			<g>
				<path style="fill:#612800;" d="M250.961,369.211c-0.45-0.901-0.903-1.721-1.397-2.461c0.393,0.635,0.765,1.317,1.144,2.058
					c1.256,2.522,2.69,5.224,3.028,7.986c-3.671,0.334-7.632,0.94-11.34,0.694c-4.113-0.265-8.143-2.941-12.119-3.334
					c-4.541-0.446-7.461,2.779-10.431,5.752c-1.755,1.753-5.701,3.867-7.224,2.145c1.253,2.401,5.616,0.127,7.487-1.744
					c2.97-2.973,5.894-6.196,10.428-5.752c3.976,0.392,8.003,3.071,12.122,3.342c3.702,0.236,7.666-0.366,11.342-0.699
					C253.659,374.435,252.229,371.73,250.961,369.211z"/>
			</g>
			<g>
				<path style="fill:#612800;" d="M206.066,379.652c2.832-2.854,5.623-5.757,8.4-8.65c0.006-0.005,0.014-0.014,0.018-0.018
					c0.174-0.197,0.162-0.507-0.037-0.685c-0.197-0.185-0.502-0.169-0.677,0.028c-2.665,3.017-5.333,6.021-8.052,8.985
					c-0.867,0.95-1.759,1.884-2.647,2.82c-1.693,1.412-4.175,5.103-6.492,3.284c-0.201-0.156-0.295-0.332-0.431-0.495
					c0.138,0.277,0.301,0.555,0.601,0.809c-0.038-0.024-0.082-0.037-0.119-0.068c0.041,0.044,0.093,0.054,0.137,0.084
					c0.025,0.027,0.045,0.051,0.074,0.073c1.561,1.224,3.191-0.172,4.592-1.639c0.112-0.105,0.219-0.202,0.33-0.304
					C203.227,382.498,204.65,381.077,206.066,379.652z"/>
			</g>
			<g>
				<path style="fill:#612800;" d="M211.402,381.804c2.177-1.964,4.207-4.111,6.199-6.225l0.016-0.013
					c0.006-0.008,0.015-0.018,0.021-0.022c0.17-0.204,0.145-0.51-0.056-0.688c-0.206-0.174-0.506-0.151-0.677,0.053
					c-1.896,2.262-3.759,4.483-5.805,6.567c-0.203,0.202-0.41,0.391-0.609,0.587c-2.799,2.505-5.911,4.152-7.15,2.712
					c0.198,0.408,0.491,0.657,0.842,0.797c0.554,0.265,1.249,0.105,1.819-0.046c0.707-0.212,1.346-0.586,1.958-0.984
					c0.243-0.155,0.46-0.34,0.692-0.508c0.17-0.12,0.341-0.246,0.514-0.377C209.934,383.066,210.685,382.449,211.402,381.804z
					 M204.572,385.671c-0.076-0.01-0.156-0.013-0.225-0.033C204.416,385.658,204.496,385.659,204.572,385.671z"/>
			</g>
		</g>
		<g>
			<path style="fill:#F55F53;" d="M195.852,376.031c0.843-1.162,2.099-1.671,2.802-1.139c0.698,0.535,0.577,1.909-0.274,3.067
				c-0.846,1.159-2.104,1.666-2.806,1.134C194.878,378.563,194.997,377.185,195.852,376.031z"/>
		</g>
		<g>
			<path style="fill:#F55F53;" d="M196.73,383.293c0.961-1.171,2.287-1.659,2.954-1.087c0.675,0.572,0.438,1.986-0.524,3.157
				c-0.957,1.171-2.284,1.661-2.954,1.088C195.537,385.882,195.77,384.466,196.73,383.293z"/>
		</g>
		<g>
			<path style="fill:#F55F53;" d="M203.317,383.036c0.96-1.17,2.288-1.658,2.953-1.087c0.671,0.57,0.435,1.984-0.522,3.157
				c-0.963,1.174-2.288,1.66-2.958,1.093C202.119,385.627,202.357,384.211,203.317,383.036z"/>
		</g>
		<g>
			<path style="fill:#F55F53;" d="M213.15,380.649c0.873-0.906,2.012-1.216,2.537-0.692c0.527,0.529,0.247,1.692-0.629,2.597
				c-0.877,0.907-2.012,1.217-2.537,0.693C211.994,382.721,212.273,381.553,213.15,380.649z"/>
		</g>
	</g>
	<g style="clip-path:url(#SVGID_00000014634226239988617200000016157264468351227059_);">
		<g>
			<path style="fill:#A8A8A8;" d="M207.066,417.605c0.259,3.207-3.552,7.718-5.733,7.56L69.737,414.541
				c-2.181-0.162-4.177-2.913-4.432-6.124l-13.178-89.496c-0.255-3.212,1.319-5.702,3.498-5.541l134.244,9.874
				c2.181,0.161,4.175,2.912,4.431,6.126L207.066,417.605z"/>
		</g>
		<g>
			<path style="fill:#FFFFFF;" d="M203.675,417.36c0.247,3.075-1.265,5.459-3.354,5.305l-128.748-9.472
				c-2.09-0.149-4.004-2.79-4.25-5.86l-12.644-85.735c-0.244-3.076,1.264-5.461,3.355-5.311l128.747,9.472
				c2.092,0.151,4.005,2.792,4.248,5.866L203.675,417.36z"/>
		</g>
	</g>
	<g style="clip-path:url(#SVGID_00000014634226239988617200000016157264468351227059_);">
		<path style="fill:#F27268;" d="M336.595,298.22c-3.511-18.67-20.304-76.852-21.601-87.636l-0.283,0.283
			c0.118,11.85-10.074,63.812-13.397,67.205c0.01,0.041,0.013,0.083,0.02,0.124c2.751,14.215,6.805,33.081,10.174,47.114
			c0.701,2.926-51.318,21.411-70.798,33.047c3.212,7.103,6.988,14.857,13.412,21.956c22.143-6.254,78.808-30.792,83.082-34.908
			C347.724,335.275,339.124,311.694,336.595,298.22z"/>
	</g>
	<g style="clip-path:url(#SVGID_00000014634226239988617200000016157264468351227059_);">
		<g style="opacity:0.13;">
			<path style="fill:#303030;" d="M254.987,292.964c1.247,0.881,1.491,2.673,0.546,4.013c-0.942,1.335-2.716,1.708-3.963,0.827
				c-1.245-0.88-1.492-2.679-0.55-4.015C251.967,292.45,253.742,292.085,254.987,292.964z"/>
		</g>
		<g>
			<path style="fill:#E3584D;" d="M256.107,295.332c0,1.418-1.148,2.566-2.565,2.566c-1.414,0-2.565-1.148-2.565-2.566
				c0-1.413,1.151-2.564,2.565-2.564C254.959,292.768,256.107,293.919,256.107,295.332z"/>
		</g>
	</g>
	<g style="clip-path:url(#SVGID_00000014634226239988617200000016157264468351227059_);">
		<g style="opacity:0.13;">
			<path style="fill:#303030;" d="M255.89,327.17c0,1.527-1.234,2.765-2.764,2.765c-1.526,0-2.76-1.237-2.76-2.765
				c0-1.524,1.233-2.76,2.76-2.76C254.655,324.41,255.89,325.646,255.89,327.17z"/>
		</g>
		<g>
			<path style="fill:#E3584D;" d="M255.847,326.756c0,1.416-1.151,2.565-2.565,2.565c-1.417,0-2.566-1.149-2.566-2.565
				c0-1.416,1.149-2.564,2.566-2.564C254.695,324.191,255.847,325.34,255.847,326.756z"/>
		</g>
	</g>
	<g style="opacity:0.24;clip-path:url(#SVGID_00000014634226239988617200000016157264468351227059_);">
		<path style="fill:#F55F53;" d="M289.485,119.585c1.285,2.747-0.321,6.211-3.584,7.738c-3.266,1.527-6.954,0.539-8.238-2.207
			c-1.284-2.747,0.32-6.211,3.586-7.738C284.513,115.851,288.201,116.839,289.485,119.585z"/>
	</g>
	<g style="opacity:0.24;clip-path:url(#SVGID_00000014634226239988617200000016157264468351227059_);">
		<path style="fill:#F55F53;" d="M215.477,120.046c-1.285,2.747,0.321,6.211,3.584,7.738c3.266,1.527,6.954,0.539,8.238-2.207
			c1.284-2.747-0.32-6.212-3.586-7.738C220.449,116.312,216.761,117.3,215.477,120.046z"/>
	</g>
	<g style="clip-path:url(#SVGID_00000014634226239988617200000016157264468351227059_);">
		<g>
			<g>
				<path style="fill:#B1D375;" d="M344.255,403.823l3.864-1.655c-1.03-2.403-3.229-4.796-4.793-6.387
					c-1.63-1.66-3.348-3.213-5.01-4.714c-2.128-1.922-4.328-3.909-6.311-6.101c-1.279-1.413-5.406-6.455-4.8-12.008
					c0.175-1.591,0.676-2.658,1.531-3.263c2.038-1.443,6.226-0.454,8.728,0.136l0.62,0.145l0.944-4.096l-0.601-0.142
					c-3.398-0.798-8.533-2.01-12.118,0.524c-1.869,1.32-2.975,3.419-3.284,6.237c-0.796,7.295,4.285,13.545,5.861,15.287
					c2.125,2.348,4.404,4.407,6.608,6.397c1.691,1.528,3.289,2.972,4.831,4.541C341.094,399.505,343.418,401.869,344.255,403.823z"
					/>
			</g>
		</g>
		<g style="opacity:0.21;">
			<g>
				<path style="fill:#92BA3F;" d="M347.15,402.376c-1.03-2.403-3.229-4.796-4.793-6.387c-1.63-1.66-3.348-3.213-5.01-4.714
					c-2.128-1.922-4.328-3.909-6.311-6.101c-1.279-1.413-5.406-6.455-4.8-12.008c0.175-1.591,0.676-2.658,1.531-3.263
					c0.53-0.376,1.208-0.584,1.962-0.68c-0.366,0.115-0.703,0.267-0.993,0.472c-0.855,0.605-1.356,1.672-1.531,3.263
					c-0.607,5.553,3.521,10.595,4.8,12.008c1.982,2.191,4.183,4.179,6.311,6.101c1.662,1.501,3.38,3.054,5.01,4.714
					c1.563,1.591,3.763,3.983,4.793,6.387l-3.864,1.655c-0.023-0.056-0.06-0.114-0.086-0.17L347.15,402.376z"/>
			</g>
			<g>
				<path style="fill:#92BA3F;" d="M337.466,369.832c-0.081-0.02-0.169-0.04-0.254-0.06l0.85-3.684l-0.601-0.142
					c-2.391-0.562-5.64-1.322-8.604-0.845c3.207-0.855,6.919,0.014,9.573,0.637l0.601,0.142l-0.944,4.096L337.466,369.832z"/>
			</g>
		</g>
		<g>
			<path style="fill:#B6D27B;" d="M355.865,351.256c13.512,0,24.465,2.93,24.465,6.543c0,0.062-0.028,0.123-0.034,0.185
				l-9.517,52.131h-0.057c0.003,0.031,0.018,0.063,0.018,0.094c0,2.168-6.658,3.926-14.875,3.926
				c-8.216,0-14.877-1.758-14.877-3.926c0-0.031,0.015-0.063,0.019-0.094h-0.058l-9.516-52.131
				c-0.005-0.061-0.035-0.123-0.035-0.185C331.398,354.185,342.353,351.256,355.865,351.256z"/>
		</g>
		<g>
			<path style="fill:#F9F9F9;" d="M331.398,358.005c0,3.726,10.955,6.746,24.467,6.746c13.512,0,24.465-3.021,24.465-6.746
				c0-3.729-10.953-6.749-24.465-6.749C342.353,351.256,331.398,354.276,331.398,358.005z"/>
		</g>
		<g>
			<path style="fill:#F9F9F9;" d="M331.398,357.714c0,3.565,10.955,6.456,24.467,6.456c13.512,0,24.465-2.891,24.465-6.456
				c0-3.567-10.953-6.458-24.465-6.458C342.353,351.256,331.398,354.147,331.398,357.714z"/>
		</g>
		<g>
			<path style="fill:#3B1818;" d="M354.677,358.053c9.182,0,17.172,1.338,21.357,3.313c-4.409,1.694-11.795,2.805-20.169,2.805
				c-9.183,0-17.172-1.337-21.358-3.313C338.919,359.165,346.304,358.053,354.677,358.053z"/>
		</g>
	</g>
	<g style="clip-path:url(#SVGID_00000014634226239988617200000016157264468351227059_);">
		<g>
			<path style="fill:#3B1818;" d="M300.435,88.84c-0.032,0.001-0.064,0.002-0.096,0.001c-0.64-0.021-1.139-0.521-1.111-1.115
				c1.305-29.054-19.739-43.318-38.161-46.706c-20.315-3.735-46.899,3.806-57.241,29.199c-0.227,0.558-0.899,0.842-1.498,0.635
				c-0.6-0.208-0.902-0.828-0.675-1.386c10.824-26.574,38.628-34.472,59.881-30.562c19.314,3.551,41.382,18.488,40.016,48.895
				C301.522,88.367,301.034,88.815,300.435,88.84z"/>
		</g>
	</g>
	<g style="clip-path:url(#SVGID_00000014634226239988617200000016157264468351227059_);">
		<g>
			<path style="fill:#3B1818;" d="M234.512,153.977c-0.035,0-0.07-0.003-0.106-0.012c-32.447-7.083-36.495-32.416-36.532-32.671
				c-0.04-0.273,0.149-0.526,0.422-0.566c0.274-0.04,0.527,0.149,0.567,0.422c0.037,0.248,4.01,24.908,35.755,31.838
				c0.27,0.059,0.441,0.325,0.382,0.595C234.949,153.818,234.742,153.977,234.512,153.977z"/>
		</g>
		<g>
			<path style="fill:#6D797A;" d="M236.295,152.206c2.412,0.753,4.092,2.243,3.752,3.329c-0.338,1.085-2.566,1.355-4.979,0.603
				c-2.414-0.753-7.738-3.62-7.4-4.706C228.008,150.346,233.883,151.453,236.295,152.206z"/>
		</g>
	</g>
	<g style="clip-path:url(#SVGID_00000014634226239988617200000016157264468351227059_);">
		<g>
			<g>
				<path style="fill:#656F70;" d="M208.094,130.346c2.553-1.706,3.643-8.849,2.223-16.8c-1.385-7.766-4.264-13.861-7.087-14.788
					l-1.75,0.133c-2.719,1.416-4.023,8.524-2.566,16.69c1.347,7.552,4.209,13.705,6.986,14.931L208.094,130.346z"/>
			</g>
			<g>
				<path style="fill:#3B1818;" d="M209.389,113.973c1.051,7.718-0.469,14.484-3.455,16.537l2.473-0.188
					c3.311-1.611,5.063-8.684,3.955-16.82c-1.014-7.437-4.094-13.387-7.383-14.879l-3.485,0.264
					C204.973,99.959,208.322,106.151,209.389,113.973z"/>
			</g>
		</g>
		<g>
			<g>
				<path style="fill:#7B898A;" d="M204.178,127.379c1.965-1.313,2.805-6.813,1.713-12.933c-1.067-5.979-3.284-10.671-5.458-11.384
					l-1.347,0.102c-2.094,1.09-3.097,6.563-1.976,12.848c1.038,5.814,3.241,10.551,5.378,11.495L204.178,127.379z"/>
			</g>
			<g>
				<path style="fill:#3B1818;" d="M205.176,114.774c0.809,5.942-0.361,11.15-2.66,12.731l1.902-0.145
					c2.551-1.241,3.898-6.685,3.045-12.948c-0.779-5.726-3.15-10.307-5.683-11.455l-2.683,0.203
					C201.775,103.986,204.354,108.752,205.176,114.774z"/>
			</g>
		</g>
		<g>
			<path style="fill:#3B1818;" d="M201.01,121.693c1.107-0.739,1.579-3.836,0.964-7.283c-0.601-3.367-1.849-6.009-3.073-6.411
				l-0.759,0.057c-1.179,0.614-1.744,3.695-1.112,7.235c0.584,3.274,1.825,5.941,3.028,6.473L201.01,121.693z"/>
		</g>
	</g>
	<g style="clip-path:url(#SVGID_00000014634226239988617200000016157264468351227059_);">
		<g>
			<g>
				<path style="fill:#6D797A;" d="M199.041,122.954c-1.174,0.065-2.267-0.536-2.579-1.485c-0.433-1.324-10.449-32.678,4.234-54.502
					c0.678-1.009,2.23-1.402,3.464-0.878c1.235,0.525,1.685,1.768,1.005,2.778c-13.71,20.378-3.87,51.151-3.769,51.459
					c0.357,1.093-0.457,2.235-1.819,2.55C199.399,122.919,199.22,122.944,199.041,122.954z"/>
			</g>
		</g>
		<path style="fill:#576061;" d="M204.161,66.09c-0.624-0.266-1.328-0.295-1.96-0.13c0.201,0.038,0.401,0.09,0.592,0.171
			c1.235,0.524,1.685,1.768,1.006,2.778c-13.71,20.378-3.87,51.151-3.769,51.459c0.351,1.074-0.432,2.19-1.751,2.528
			c0.246,0.048,0.502,0.071,0.763,0.057c0.179-0.01,0.358-0.035,0.537-0.077c1.362-0.315,2.177-1.457,1.819-2.55
			c-0.101-0.309-9.941-31.081,3.769-51.459C205.846,67.858,205.395,66.614,204.161,66.09z"/>
	</g>
</g>
</svg>
