<?xml version="1.0" encoding="UTF-8"?>
<svg version="1.1" xmlns="http://www.w3.org/2000/svg" width="512" height="512">
<path d="M0 0 C60.72 0 121.44 0 184 0 C184 21.12 184 42.24 184 64 C194.56 64 205.12 64 216 64 C216 85.12 216 106.24 216 128 C205.44 128 194.88 128 184 128 C184 149.12 184 170.24 184 192 C44.08 192 -95.84 192 -240 192 C-240 181.44 -240 170.88 -240 160 C-234.72 160 -229.44 160 -224 160 C-224 149.44 -224 138.88 -224 128 C-229.28 128 -234.56 128 -240 128 C-240 117.44 -240 106.88 -240 96 C-208.32 96 -176.64 96 -144 96 C-144 85.44 -144 74.88 -144 64 C-114.96 64 -85.92 64 -56 64 C-56 74.56 -56 85.12 -56 96 C-37.52 96 -19.04 96 0 96 C0 106.56 0 117.12 0 128 C10.56 128 21.12 128 32 128 C32 106.88 32 85.76 32 64 C21.44 64 10.88 64 0 64 C0 42.88 0 21.76 0 0 Z " fill="#69A709" transform="translate(264,296)"/>
<path d="M0 0 C29.04 0 58.08 0 88 0 C88 10.56 88 21.12 88 32 C106.48 32 124.96 32 144 32 C144 63.68 144 95.36 144 128 C64.8 128 -14.4 128 -96 128 C-96 117.44 -96 106.88 -96 96 C-90.72 96 -85.44 96 -80 96 C-80 85.44 -80 74.88 -80 64 C-85.28 64 -90.56 64 -96 64 C-96 53.44 -96 42.88 -96 32 C-64.32 32 -32.64 32 0 32 C0 21.44 0 10.88 0 0 Z " fill="#FCA713" transform="translate(120,360)"/>
<path d="M0 0 C29.04 0 58.08 0 88 0 C88 29.04 88 58.08 88 88 C77.44 88 66.88 88 56 88 C55.67 78.1 55.34 68.2 55 58 C16.06 96.94 -22.88 135.88 -63 176 C-66.32429899 174.3378505 -67.87230799 173.3764592 -70.36627197 170.87423706 C-71.33373352 169.91089951 -71.33373352 169.91089951 -72.32073975 168.92810059 C-73.36515228 167.87290222 -73.36515228 167.87290222 -74.43066406 166.79638672 C-75.17251953 166.0548233 -75.914375 165.31325989 -76.67871094 164.54922485 C-79.12911939 162.09742329 -81.572368 159.63861395 -84.015625 157.1796875 C-85.71341057 155.47817175 -87.41163829 153.77709708 -89.11029053 152.07644653 C-93.57974916 147.59935194 -98.04316914 143.11628362 -102.50537109 138.63195801 C-107.05985468 134.05701531 -111.62000567 129.48772952 -116.1796875 124.91796875 C-125.12535692 115.95085005 -134.0648529 106.97760292 -143 98 C-146.28198266 99.4364888 -148.45082228 101.20342016 -150.97369385 103.73318481 C-151.75329468 104.51003632 -152.53289551 105.28688782 -153.33612061 106.08728027 C-154.18200745 106.94035767 -155.02789429 107.79343506 -155.89941406 108.67236328 C-156.79732666 109.56998383 -157.69523926 110.46760437 -158.62036133 111.39242554 C-161.07908978 113.85058047 -163.53160549 116.31485045 -165.98305225 118.78026438 C-168.54727454 121.35699408 -171.11716645 123.92805644 -173.6864624 126.49972534 C-178.54941983 131.3688975 -183.40725677 136.24314518 -188.26327491 141.11923683 C-193.79256418 146.67088529 -199.32753748 152.21685188 -204.86299562 157.76234841 C-216.24833386 169.16858848 -227.62651247 180.58194296 -239 192 C-242.71713736 190.26239853 -245.08741012 188.14323122 -247.984375 185.2109375 C-248.67506073 184.51600693 -248.67506073 184.51600693 -249.37969971 183.80703735 C-250.84125078 182.33434102 -252.29567168 180.85482597 -253.75 179.375 C-254.74302611 178.37193678 -255.73651089 177.36932743 -256.73046875 176.3671875 C-259.15897941 173.91669165 -261.58114675 171.4600333 -264 169 C-262.44332539 165.27571543 -260.15977084 162.91317604 -257.31771851 160.07720947 C-256.83823403 159.59601615 -256.35874955 159.11482282 -255.86473525 158.61904788 C-254.25877535 157.00979687 -252.64577761 155.40779294 -251.03271484 153.80566406 C-249.87929556 152.65280898 -248.7263166 151.49951322 -247.57374573 150.34580994 C-244.44412928 147.2156193 -241.30838145 144.09163658 -238.17150831 140.96872044 C-234.89410321 137.70381161 -231.62235503 134.43324414 -228.3500061 131.16326904 C-222.15273586 124.9722168 -215.95038466 118.78628079 -209.7461983 112.60216022 C-202.68309568 105.56140661 -195.62566627 98.51497812 -188.56871104 91.46806383 C-174.05211742 76.97237947 -159.52840319 62.48384748 -145 48 C-142.01906991 49.34027957 -139.93654685 50.81531889 -137.63372803 53.12576294 C-136.98875366 53.76798798 -136.3437793 54.41021301 -135.67926025 55.07189941 C-134.98298523 55.77536499 -134.28671021 56.47883057 -133.56933594 57.20361328 C-132.82748047 57.9451767 -132.085625 58.68674011 -131.32128906 59.45077515 C-128.87088061 61.90257671 -126.427632 64.36138605 -123.984375 66.8203125 C-122.28658943 68.52182825 -120.58836171 70.22290292 -118.88970947 71.92355347 C-114.42025084 76.40064806 -109.95683086 80.88371638 -105.49462891 85.36804199 C-100.94014532 89.94298469 -96.37999433 94.51227048 -91.8203125 99.08203125 C-82.87464308 108.04914995 -73.9351471 117.02239708 -65 126 C-61.73637024 124.56906155 -59.57384977 122.82129135 -57.06427002 120.30477905 C-56.29308334 119.53634171 -55.52189667 118.76790436 -54.7273407 117.97618103 C-53.8908046 117.13245438 -53.05426849 116.28872772 -52.19238281 115.41943359 C-51.30422379 114.53156662 -50.41606476 113.64369965 -49.50099182 112.72892761 C-47.06912181 110.29763109 -44.64346479 107.86022036 -42.21887684 105.42166471 C-39.68268208 102.87296197 -37.14081715 100.32992711 -34.59954834 97.7862854 C-29.78971466 92.97023716 -24.98500169 88.14911367 -20.18210769 83.32614577 C-14.71327706 77.83495542 -9.23876193 72.34944739 -3.763762 66.86440921 C7.49716454 55.58258121 18.75017252 44.29289726 30 33 C20.1 32.67 10.2 32.34 0 32 C0 21.44 0 10.88 0 0 Z " fill="#F25144" transform="translate(344,24)"/>
<path d="M0 0 C23.76 0 47.52 0 72 0 C72 21.12 72 42.24 72 64 C82.56 64 93.12 64 104 64 C104 85.12 104 106.24 104 128 C93.44 128 82.88 128 72 128 C72 149.12 72 170.24 72 192 C48.24 192 24.48 192 0 192 C0 170.88 0 149.76 0 128 C10.56 128 21.12 128 32 128 C32 106.88 32 85.76 32 64 C21.44 64 10.88 64 0 64 C0 42.88 0 21.76 0 0 Z " fill="#7FC225" transform="translate(264,296)"/>
<path d="M0 0 C7.26 0 14.52 0 22 0 C22 21.12 22 42.24 22 64 C11.44 64 0.88 64 -10 64 C-10 85.12 -10 106.24 -10 128 C-46.96 128 -83.92 128 -122 128 C-122 106.88 -122 85.76 -122 64 C-100.88 64 -79.76 64 -58 64 C-58 58.06 -58 52.12 -58 46 C-56.79085937 45.39414062 -55.58171875 44.78828125 -54.3359375 44.1640625 C-39.68409143 36.71119586 -26.8981725 28.44881623 -15 17 C-14.12214844 16.16210938 -13.24429688 15.32421875 -12.33984375 14.4609375 C-7.55781202 9.79863263 -3.95152127 5.53212977 0 0 Z " fill="#69A709" transform="translate(458,360)"/>
<path d="M0 0 C52.8 0 105.6 0 160 0 C160 10.56 160 21.12 160 32 C138.88 32 117.76 32 96 32 C96 42.56 96 53.12 96 64 C69.6 64 43.2 64 16 64 C16 53.44 16 42.88 16 32 C10.72 32 5.44 32 0 32 C0 21.44 0 10.88 0 0 Z " fill="#FCA713" transform="translate(24,392)"/>
<path d="M0 0 C29.04 0 58.08 0 88 0 C88 10.56 88 21.12 88 32 C106.48 32 124.96 32 144 32 C144 42.56 144 53.12 144 64 C117.6 64 91.2 64 64 64 C64 53.44 64 42.88 64 32 C42.88 32 21.76 32 0 32 C0 21.44 0 10.88 0 0 Z " fill="#F4C067" transform="translate(120,360)"/>
<path d="M0 0 C10.56 0 21.12 0 32 0 C32 42.24 32 84.48 32 128 C21.44 128 10.88 128 0 128 C0 85.76 0 43.52 0 0 Z " fill="#4DB7E5" transform="translate(160,208)"/>
<path d="M0 0 C10.56 0 21.12 0 32 0 C32 42.24 32 84.48 32 128 C21.44 128 10.88 128 0 128 C0 85.76 0 43.52 0 0 Z " fill="#4DB7E5" transform="translate(400,144)"/>
<path d="M0 0 C10.56 0 21.12 0 32 0 C32.7091529 11.06806425 33.27357208 22.12040109 33.60617733 33.20629978 C33.76608629 38.35845716 33.98123999 43.49393914 34.33862305 48.63647461 C36.80164086 85.01158061 36.80164086 85.01158061 24.99658203 98.81982422 C17.80131617 106.72200581 9.66747897 113.75860765 1 120 C0.67 120 0.34 120 0 120 C0 80.4 0 40.8 0 0 Z " fill="#4CB7E5" transform="translate(80,248)"/>
<path d="M0 0 C26.4 0 52.8 0 80 0 C80 10.56 80 21.12 80 32 C53.6 32 27.2 32 0 32 C0 21.44 0 10.88 0 0 Z " fill="#F4C067" transform="translate(184,456)"/>
<path d="M0 0 C26.4 0 52.8 0 80 0 C80 10.56 80 21.12 80 32 C53.6 32 27.2 32 0 32 C0 21.44 0 10.88 0 0 Z " fill="#F4C067" transform="translate(24,456)"/>
<path d="M0 0 C26.4 0 52.8 0 80 0 C80 10.56 80 21.12 80 32 C53.6 32 27.2 32 0 32 C0 21.44 0 10.88 0 0 Z " fill="#F4C067" transform="translate(24,392)"/>
<path d="M0 0 C10.56 0 21.12 0 32 0 C32 21.12 32 42.24 32 64 C21.44 64 10.88 64 0 64 C0 42.88 0 21.76 0 0 Z " fill="#FCA713" transform="translate(336,424)"/>
<path d="M0 0 C10.56 0 21.12 0 32 0 C32 21.12 32 42.24 32 64 C21.44 64 10.88 64 0 64 C0 42.88 0 21.76 0 0 Z " fill="#FCA713" transform="translate(368,360)"/>
<path d="M0 0 C10.56 0 21.12 0 32 0 C32 21.12 32 42.24 32 64 C21.44 64 10.88 64 0 64 C0 42.88 0 21.76 0 0 Z " fill="#FCA713" transform="translate(336,296)"/>
<path d="M0 0 C10.56 0 21.12 0 32 0 C32 21.12 32 42.24 32 64 C21.44 64 10.88 64 0 64 C0 42.88 0 21.76 0 0 Z " fill="#4DB7E5" transform="translate(320,208)"/>
<path d="M0 0 C18.48 0 36.96 0 56 0 C56 10.56 56 21.12 56 32 C37.52 32 19.04 32 0 32 C0 21.44 0 10.88 0 0 Z " fill="#F4C067" transform="translate(120,424)"/>
<path d="M0 0 C18.48 0 36.96 0 56 0 C56 10.56 56 21.12 56 32 C37.52 32 19.04 32 0 32 C0 21.44 0 10.88 0 0 Z " fill="#FCA713" transform="translate(40,424)"/>
<path d="M0 0 C19.14 0 38.28 0 58 0 C53.48897779 7.89428888 53.48897779 7.89428888 50.1640625 11.26953125 C49.43670898 12.0083252 48.70935547 12.74711914 47.95996094 13.50830078 C47.18942383 14.26868652 46.41888672 15.02907227 45.625 15.8125 C44.82352539 16.60640137 44.02205078 17.40030273 43.19628906 18.21826172 C30.70539591 30.36867489 16.34724495 39.86978314 0 46 C0 30.82 0 15.64 0 0 Z " fill="#7FC225" transform="translate(368,424)"/>
<path d="M0 0 C19.14 0 38.28 0 58 0 C53.48897779 7.89428888 53.48897779 7.89428888 50.1640625 11.26953125 C49.43670898 12.0083252 48.70935547 12.74711914 47.95996094 13.50830078 C47.18942383 14.26868652 46.41888672 15.02907227 45.625 15.8125 C44.82352539 16.60640137 44.02205078 17.40030273 43.19628906 18.21826172 C30.70539591 30.36867489 16.34724495 39.86978314 0 46 C0 30.82 0 15.64 0 0 Z " fill="#7FC225" transform="translate(400,360)"/>
<path d="M0 0 C19.14 0 38.28 0 58 0 C53.48897779 7.89428888 53.48897779 7.89428888 50.1640625 11.26953125 C49.43670898 12.0083252 48.70935547 12.74711914 47.95996094 13.50830078 C47.18942383 14.26868652 46.41888672 15.02907227 45.625 15.8125 C44.82352539 16.60640137 44.02205078 17.40030273 43.19628906 18.21826172 C30.70539591 30.36867489 16.34724495 39.86978314 0 46 C0 30.82 0 15.64 0 0 Z " fill="#7FC225" transform="translate(368,296)"/>
<path d="M0 0 C10.56 0 21.12 0 32 0 C32 13.2 32 26.4 32 40 C21.44 40 10.88 40 0 40 C0 26.8 0 13.6 0 0 Z " fill="#4DB7E5" transform="translate(240,232)"/>
<path d="M0 0 C7.92 0 15.84 0 24 0 C24 10.56 24 21.12 24 32 C16.08 32 8.16 32 0 32 C0 21.44 0 10.88 0 0 Z " fill="#F5B142" transform="translate(240,456)"/>
<path d="M0 0 C7.92 0 15.84 0 24 0 C24 10.56 24 21.12 24 32 C16.08 32 8.16 32 0 32 C0 21.44 0 10.88 0 0 Z " fill="#ED8515" transform="translate(160,456)"/>
<path d="M0 0 C7.92 0 15.84 0 24 0 C24 10.56 24 21.12 24 32 C16.08 32 8.16 32 0 32 C0 21.44 0 10.88 0 0 Z " fill="#F5B142" transform="translate(80,456)"/>
<path d="M0 0 C7.92 0 15.84 0 24 0 C24 10.56 24 21.12 24 32 C16.08 32 8.16 32 0 32 C0 21.44 0 10.88 0 0 Z " fill="#ED8515" transform="translate(240,424)"/>
<path d="M0 0 C7.92 0 15.84 0 24 0 C24 10.56 24 21.12 24 32 C16.08 32 8.16 32 0 32 C0 21.44 0 10.88 0 0 Z " fill="#ED8515" transform="translate(96,424)"/>
<path d="M0 0 C7.92 0 15.84 0 24 0 C24 10.56 24 21.12 24 32 C16.08 32 8.16 32 0 32 C0 21.44 0 10.88 0 0 Z " fill="#F5B142" transform="translate(240,392)"/>
<path d="M0 0 C7.92 0 15.84 0 24 0 C24 10.56 24 21.12 24 32 C16.08 32 8.16 32 0 32 C0 21.44 0 10.88 0 0 Z " fill="#ED8515" transform="translate(160,392)"/>
<path d="M0 0 C7.92 0 15.84 0 24 0 C24 10.56 24 21.12 24 32 C16.08 32 8.16 32 0 32 C0 21.44 0 10.88 0 0 Z " fill="#F5B142" transform="translate(80,392)"/>
<path d="M0 0 C7.92 0 15.84 0 24 0 C24 10.56 24 21.12 24 32 C16.08 32 8.16 32 0 32 C0 21.44 0 10.88 0 0 Z " fill="#F5B142" transform="translate(184,360)"/>
<path d="M0 0 C0 2.97 0 5.94 0 9 C-23.76 9 -47.52 9 -72 9 C-72 6.36 -72 3.72 -72 1 C-63.79361371 0.86886985 -55.58721687 0.73842829 -47.38080597 0.60884857 C-43.56962045 0.54864845 -39.75843889 0.48821749 -35.94726562 0.42724609 C-32.26440785 0.36833621 -28.58154068 0.31004952 -24.89866638 0.25218201 C-23.49856723 0.23007576 -22.09847151 0.20775076 -20.69837952 0.18519592 C-13.79831042 0.07417413 -6.90103839 -0.03067128 0 0 Z " fill="#69A709" transform="translate(336,479)"/>
<path d="M0 0 C0 2.97 0 5.94 0 9 C-23.76 9 -47.52 9 -72 9 C-72 6.36 -72 3.72 -72 1 C-63.79361371 0.86886985 -55.58721687 0.73842829 -47.38080597 0.60884857 C-43.56962045 0.54864845 -39.75843889 0.48821749 -35.94726562 0.42724609 C-32.26440785 0.36833621 -28.58154068 0.31004952 -24.89866638 0.25218201 C-23.49856723 0.23007576 -22.09847151 0.20775076 -20.69837952 0.18519592 C-13.79831042 0.07417413 -6.90103839 -0.03067128 0 0 Z " fill="#69A709" transform="translate(368,415)"/>
<path d="M0 0 C0 2.97 0 5.94 0 9 C-23.76 9 -47.52 9 -72 9 C-72 6.36 -72 3.72 -72 1 C-63.79361371 0.86886985 -55.58721687 0.73842829 -47.38080597 0.60884857 C-43.56962045 0.54864845 -39.75843889 0.48821749 -35.94726562 0.42724609 C-32.26440785 0.36833621 -28.58154068 0.31004952 -24.89866638 0.25218201 C-23.49856723 0.23007576 -22.09847151 0.20775076 -20.69837952 0.18519592 C-13.79831042 0.07417413 -6.90103839 -0.03067128 0 0 Z " fill="#69A709" transform="translate(336,351)"/>
</svg>
